<svg width="150" height="42" viewBox="0 0 150 42" fill="none" xmlns="http://www.w3.org/2000/svg">
<g clip-path="url(#clip0_48_449)">
<path d="M66.6501 28.1342L65.6774 25.5814H57.3932L56.4235 28.196C56.0429 29.2122 55.7187 29.8988 55.4509 30.2556C55.183 30.6125 54.7425 30.7904 54.1293 30.7894C53.874 30.7899 53.6211 30.7399 53.3852 30.6423C53.1493 30.5448 52.9351 30.4016 52.7549 30.221C52.5687 30.0605 52.4187 29.8625 52.3146 29.6401C52.2105 29.4177 52.1546 29.1758 52.1508 28.9303C52.1533 28.6384 52.2001 28.3487 52.2897 28.0708C52.3823 27.7753 52.5334 27.3637 52.7428 26.8359L57.9535 13.6291C58.1045 13.2506 58.2797 12.7938 58.4882 12.263C58.6619 11.7984 58.8858 11.354 59.1557 10.9377C59.3942 10.584 59.713 10.2916 60.0861 10.0843C60.5326 9.86986 61.0217 9.75854 61.5172 9.75854C62.0126 9.75854 62.5017 9.86986 62.9482 10.0843C63.3215 10.2862 63.6431 10.5716 63.8877 10.9181C64.127 11.2634 64.3295 11.6328 64.4918 12.0203C64.6539 12.4133 64.8598 12.9385 65.1095 13.5959L70.432 26.7138C70.8488 27.714 71.0573 28.4402 71.0573 28.8926C71.0518 29.1374 70.9967 29.3785 70.8952 29.6014C70.7937 29.8243 70.6479 30.0243 70.4667 30.1893C70.2823 30.3796 70.0608 30.53 69.8158 30.6314C69.5708 30.7328 69.3076 30.783 69.0425 30.7788C68.7545 30.7882 68.4684 30.7299 68.2072 30.6085C67.9799 30.4962 67.7802 30.335 67.6227 30.1365C67.4176 29.8528 67.2472 29.5455 67.1153 29.2213C66.936 28.8112 66.781 28.4488 66.6501 28.1342ZM58.4791 22.4874H64.5658L61.4953 14.095L58.4791 22.4874Z" fill="white"/>
<path d="M75.7393 13.623C75.2415 13.6353 74.757 13.4623 74.38 13.1375C74.0054 12.8138 73.8182 12.3559 73.8182 11.7639C73.8113 11.5143 73.8594 11.2662 73.9591 11.0372C74.0588 10.8081 74.2076 10.6038 74.3951 10.4385C74.7587 10.0996 75.2389 9.91329 75.7363 9.91831C76.2139 9.91424 76.6771 10.0817 77.0412 10.3903C77.4239 10.7009 77.6152 11.1577 77.6152 11.7608C77.6152 12.3429 77.4294 12.7997 77.0579 13.1269C76.6973 13.4533 76.226 13.6306 75.7393 13.623V13.623ZM77.6152 17.5433V28.4884C77.6152 29.2474 77.4344 29.8208 77.073 30.2088C76.8988 30.3986 76.6858 30.5488 76.4484 30.6492C76.211 30.7496 75.9548 30.7979 75.697 30.7908C75.4402 30.7995 75.1848 30.7505 74.9495 30.6474C74.7142 30.5443 74.5052 30.3898 74.3377 30.1953C73.9903 29.7932 73.8167 29.2242 73.8167 28.4884V17.6413C73.8167 16.8924 73.9903 16.3285 74.3377 15.9495C74.5091 15.7615 74.7195 15.613 74.9543 15.5146C75.1891 15.4161 75.4426 15.3701 75.697 15.3796C75.9537 15.3718 76.2092 15.4186 76.4464 15.5169C76.6836 15.6152 76.8972 15.7626 77.073 15.9495C77.4344 16.3305 77.6152 16.8592 77.6152 17.5357V17.5433Z" fill="white"/>
<path d="M81.5331 28.4809V12.0625C81.5331 11.3035 81.7022 10.7301 82.0406 10.3421C82.2106 10.1492 82.4218 9.9968 82.6586 9.89608C82.8954 9.79537 83.1518 9.74888 83.4089 9.76005C83.6685 9.74971 83.9273 9.79588 84.1672 9.89534C84.4071 9.9948 84.6225 10.1452 84.7984 10.336C85.1499 10.714 85.3286 11.2895 85.3346 12.0625V28.4809C85.3346 29.2479 85.1564 29.8234 84.8 30.2074C84.6243 30.3969 84.4099 30.5465 84.1711 30.6459C83.9324 30.7453 83.675 30.7922 83.4165 30.7833C83.1597 30.792 82.9042 30.743 82.669 30.6399C82.4337 30.5368 82.2246 30.3823 82.0572 30.1878C81.7078 29.7897 81.5331 29.2208 81.5331 28.4809Z" fill="white"/>
<path d="M98.834 28.6483C98.0222 29.2982 97.1273 29.8372 96.1728 30.2511C95.2567 30.6182 94.2766 30.7996 93.2895 30.7848C92.3994 30.8047 91.518 30.607 90.7219 30.2089C90.0212 29.8566 89.4327 29.3162 89.0228 28.6483C88.6289 28.0053 88.4223 27.2654 88.4262 26.5117C88.4033 25.5347 88.7563 24.5861 89.4125 23.861C90.07 23.1312 90.9732 22.6412 92.122 22.3909C92.3617 22.3346 92.9593 22.2095 93.9148 22.0154C94.8704 21.8214 95.688 21.6435 96.3676 21.4817C97.0483 21.3209 97.7868 21.1243 98.5833 20.8921C98.538 19.894 98.3366 19.1612 97.9792 18.6938C97.6217 18.2263 96.8832 17.9926 95.7635 17.9926C94.7999 17.9926 94.0749 18.1268 93.5886 18.3952C93.0778 18.6872 92.6479 19.1018 92.338 19.6015C92.1104 19.9655 91.8644 20.3178 91.601 20.6569C91.4499 20.8288 91.1479 20.9132 90.6766 20.9132C90.2702 20.9208 89.8759 20.7749 89.5726 20.5046C89.4217 20.3756 89.3016 20.2146 89.2211 20.0333C89.1406 19.8519 89.1017 19.655 89.1074 19.4567C89.1223 18.749 89.3713 18.0662 89.8157 17.5147C90.289 16.8854 91.0255 16.3677 92.0254 15.9616C93.0252 15.5555 94.2713 15.352 95.7635 15.351C97.4309 15.351 98.7399 15.5475 99.6904 15.9405C100.641 16.3335 101.315 16.9558 101.713 17.8072C102.106 18.6576 102.303 19.7859 102.303 21.1922C102.303 22.0788 102.303 22.8327 102.303 23.4539C102.303 24.0751 102.296 24.7642 102.282 25.5211C102.289 26.2768 102.408 27.0273 102.636 27.7481C102.873 28.5201 102.991 29.0172 102.99 29.2393C102.99 29.6273 102.808 29.9792 102.442 30.2948C102.101 30.6033 101.658 30.7737 101.198 30.7728C100.808 30.7728 100.424 30.5903 100.044 30.2254C99.5776 29.751 99.1713 29.2213 98.834 28.6483ZM98.5833 23.1689C97.7904 23.4371 96.9806 23.6527 96.1592 23.8143C95.0979 24.0404 94.3639 24.2068 93.9571 24.3133C93.5265 24.4326 93.1277 24.6458 92.7896 24.9376C92.6037 25.0968 92.4569 25.2965 92.3605 25.5213C92.2642 25.7462 92.2208 25.9901 92.2338 26.2343C92.2306 26.5108 92.2872 26.7848 92.3998 27.0375C92.5124 27.2902 92.6784 27.5156 92.8863 27.6984C93.3213 28.1004 93.8912 28.3015 94.596 28.3015C95.3179 28.308 96.0306 28.1393 96.6727 27.8099C97.2524 27.5317 97.738 27.0904 98.0698 26.5404C98.4121 25.9654 98.5833 25.022 98.5833 23.7102V23.1689Z" fill="white"/>
<path d="M109.284 31.2553L109.631 30.4094L104.969 18.6726C104.682 17.9971 104.539 17.5071 104.539 17.2025C104.536 16.8835 104.623 16.5702 104.789 16.2978C104.956 16.0195 105.193 15.7897 105.477 15.6314C105.751 15.4698 106.064 15.3835 106.383 15.3811C106.929 15.3811 107.342 15.5545 107.62 15.9013C107.95 16.3524 108.199 16.8575 108.355 17.394L111.566 26.7153L114.61 18.0454C114.794 17.48 115.011 16.9261 115.262 16.3868C115.457 15.9887 115.662 15.7203 115.881 15.5816C116.163 15.4272 116.483 15.3551 116.804 15.3736C117.096 15.375 117.381 15.4541 117.632 15.6027C117.886 15.7497 118.095 15.9636 118.236 16.2209C118.377 16.4703 118.451 16.7518 118.45 17.0382C118.414 17.2141 118.354 17.4654 118.271 17.7921C118.186 18.1162 118.085 18.4449 117.969 18.7782L113.022 31.7076C112.693 32.6407 112.272 33.5392 111.766 34.39C111.374 35.0258 110.817 35.543 110.153 35.8857C109.48 36.2325 108.574 36.4059 107.434 36.4059C106.326 36.4059 105.493 36.2858 104.933 36.0456C104.373 35.8053 104.095 35.366 104.099 34.7277C104.087 34.5414 104.117 34.3548 104.185 34.1811C104.254 34.0074 104.359 33.8507 104.495 33.722C104.759 33.4868 105.15 33.3677 105.67 33.3677C105.874 33.3671 106.078 33.3956 106.274 33.4521C106.479 33.5022 106.688 33.53 106.899 33.5351C107.253 33.5518 107.605 33.4852 107.928 33.3406C108.209 33.1807 108.441 32.9485 108.601 32.6681C108.864 32.215 109.093 31.7427 109.284 31.2553V31.2553Z" fill="white"/>
<path d="M133.046 25.8317C133.046 26.8771 132.792 27.7717 132.282 28.5156C131.773 29.2594 131.017 29.8234 130.017 30.2074C129.02 30.5913 127.808 30.7833 126.383 30.7833C125.02 30.7833 123.853 30.5753 122.88 30.1591C121.908 29.7429 121.19 29.2228 120.726 28.5985C120.262 27.9743 120.031 27.3475 120.032 26.7183C120.03 26.5188 120.069 26.3211 120.147 26.1374C120.225 25.9537 120.34 25.788 120.485 25.6508C120.631 25.5026 120.807 25.3859 121 25.3081C121.194 25.2303 121.401 25.193 121.61 25.1984C121.942 25.1765 122.269 25.2811 122.527 25.4909C122.771 25.7298 122.975 26.0062 123.131 26.3097C123.463 26.9212 123.943 27.4397 124.528 27.8175C125.069 28.1502 125.807 28.3171 126.744 28.3181C127.503 28.3181 128.126 28.1492 128.613 27.8114C129.101 27.4737 129.344 27.0877 129.343 26.6535C129.343 25.987 129.091 25.501 128.588 25.1954C128.084 24.8898 127.253 24.5988 126.094 24.3224C125.005 24.0689 123.938 23.728 122.904 23.3031C122.149 22.9924 121.477 22.5102 120.941 21.8948C120.445 21.2925 120.185 20.5315 120.207 19.7522C120.21 18.9833 120.447 18.2335 120.887 17.6021C121.39 16.8844 122.086 16.3231 122.895 15.9827C123.78 15.5806 124.848 15.3796 126.099 15.3796C126.99 15.3677 127.879 15.469 128.745 15.6812C129.439 15.8463 130.102 16.1228 130.708 16.4999C131.18 16.7931 131.587 17.1801 131.903 17.6368C132.157 17.9947 132.3 18.4196 132.312 18.8581C132.319 19.0567 132.284 19.2545 132.208 19.4385C132.133 19.6224 132.02 19.7885 131.876 19.9256C131.583 20.2031 131.169 20.3418 130.631 20.3418C130.271 20.3527 129.918 20.2345 129.637 20.0086C129.291 19.7095 128.976 19.375 128.7 19.0104C128.424 18.6501 128.079 18.3482 127.685 18.1223C127.294 17.9022 126.765 17.7921 126.099 17.7921C125.498 17.7696 124.905 17.9215 124.389 18.2294C123.935 18.5209 123.708 18.8837 123.708 19.318C123.705 19.5094 123.75 19.6985 123.837 19.8689C123.924 20.0394 124.051 20.1862 124.208 20.2966C124.616 20.5862 125.073 20.8002 125.557 20.9283C126.121 21.0942 126.9 21.2952 127.892 21.5314C128.891 21.7556 129.859 22.1004 130.775 22.5583C131.442 22.8921 132.023 23.3769 132.469 23.9741C132.855 24.5161 133.057 25.167 133.046 25.8317Z" fill="white"/>
<path d="M145.845 28.6482C145.032 29.2979 144.136 29.8364 143.181 30.2495C142.265 30.6164 141.285 30.7979 140.298 30.7833C139.407 30.8031 138.526 30.6054 137.73 30.2073C137.03 29.8555 136.443 29.3155 136.034 28.6482C135.637 28.0063 135.427 27.2662 135.43 26.5117C135.408 25.535 135.761 24.5871 136.417 23.8625C137.075 23.1327 137.978 22.6426 139.127 22.3923C139.367 22.3361 139.964 22.2109 140.92 22.0169C141.875 21.8229 142.693 21.645 143.373 21.4831C144.052 21.3223 144.791 21.1258 145.588 20.8936C145.541 19.8954 145.34 19.1626 144.984 18.6952C144.629 18.2278 143.89 17.9941 142.767 17.9941C141.803 17.9941 141.079 18.1283 140.594 18.3967C140.082 18.6882 139.652 19.1029 139.341 19.6029C139.114 19.9669 138.869 20.3191 138.606 20.6584C138.455 20.8303 138.153 20.9147 137.682 20.9147C137.275 20.9223 136.881 20.7763 136.578 20.5061C136.426 20.3772 136.306 20.2162 136.225 20.0349C136.145 19.8536 136.105 19.6565 136.111 19.4582C136.126 18.7504 136.376 18.0676 136.821 17.5161C137.292 16.8869 138.028 16.3692 139.029 15.9631C140.03 15.557 141.276 15.3534 142.767 15.3524C144.434 15.3524 145.743 15.5489 146.694 15.942C147.644 16.335 148.318 16.9572 148.716 17.8086C149.109 18.659 149.306 19.7874 149.307 21.1936C149.307 22.0802 149.307 22.8341 149.307 23.4553C149.307 24.0766 149.3 24.7656 149.287 25.5225C149.294 26.2783 149.413 27.0288 149.641 27.7496C149.878 28.5216 149.996 29.0186 149.995 29.2408C149.995 29.6288 149.812 29.9806 149.446 30.2963C149.106 30.605 148.662 30.7755 148.203 30.7742C147.813 30.7742 147.429 30.5918 147.049 30.2269C146.585 29.7516 146.18 29.2215 145.845 28.6482V28.6482ZM145.597 23.1674C144.804 23.4355 143.995 23.6511 143.173 23.8127C142.112 24.0389 141.377 24.2052 140.97 24.3118C140.539 24.4311 140.14 24.6443 139.802 24.936C139.616 25.0955 139.47 25.2952 139.374 25.52C139.277 25.7448 139.234 25.9886 139.246 26.2327C139.243 26.5094 139.3 26.7835 139.413 27.0362C139.526 27.289 139.692 27.5143 139.9 27.6968C140.335 28.0989 140.905 28.2999 141.61 28.2999C142.332 28.3063 143.045 28.1376 143.687 27.8084C144.266 27.5297 144.752 27.0885 145.084 26.5388C145.426 25.9638 145.597 25.0205 145.597 23.7087V23.1674Z" fill="white"/>
<path d="M32.3108 0H9.29769C4.16272 0 0 4.15571 0 9.28204V32.2564C0 37.3828 4.16272 41.5385 9.29769 41.5385H32.3108C37.4458 41.5385 41.6085 37.3828 41.6085 32.2564V9.28204C41.6085 4.15571 37.4458 0 32.3108 0Z" fill="#0078D4"/>
<path d="M30.2205 13.2883V13.9502H31.3639C32.5087 13.9502 33.4421 12.8208 33.4421 11.4321V10.9602H32.1372C31.0799 10.9602 30.2205 12.0036 30.2205 13.2883Z" fill="white"/>
<path d="M30.2205 19.992V30.5752C32.0073 30.5014 33.4421 28.7418 33.4421 26.5901V16.4094H33.2125C31.5662 16.4094 30.2205 18.0167 30.2205 19.992Z" fill="white"/>
<path d="M18.5078 10.9602H10.3413C10.5422 12.6489 11.755 13.9502 13.211 13.9502H18.4972C21.7505 13.9502 23.4693 15.5892 23.4693 18.6907V19.2727H15.5822C10.068 19.2727 7.38861 21.1213 7.38861 24.9255C7.38861 28.7297 10.068 30.5797 15.5822 30.5797H18.5078C24.0205 30.5797 26.7014 28.0511 26.7014 22.8462V18.6967C26.7014 13.4873 24.0145 10.9602 18.5078 10.9602ZM23.4798 22.8462C23.4798 25.9478 21.7611 27.5867 18.5078 27.5867H15.5822C12.2821 27.5867 10.6102 26.6911 10.6102 24.9255C10.6102 23.1598 12.2821 22.2642 15.5822 22.2642H23.4798V22.8462Z" fill="white"/>
</g>
<defs>
<clipPath id="clip0_48_449">
<rect width="150" height="41.5385" fill="white"/>
</clipPath>
</defs>
</svg>
