<svg width="200" height="56" viewBox="0 0 200 56" fill="none" xmlns="http://www.w3.org/2000/svg">
<g clip-path="url(#clip0_8_94)">
<path d="M88.8667 37.5121L87.5699 34.1085H76.5242L75.2313 37.5945C74.7239 38.9496 74.2916 39.865 73.9345 40.3408C73.5773 40.8165 72.99 41.0538 72.1724 41.0524C71.8319 41.0531 71.4947 40.9864 71.1802 40.8563C70.8657 40.7263 70.5801 40.5353 70.3398 40.2945C70.0916 40.0806 69.8916 39.8166 69.7527 39.52C69.6139 39.2235 69.5395 38.9009 69.5343 38.5736C69.5377 38.1845 69.6002 37.7981 69.7196 37.4277C69.8431 37.0336 70.0445 36.4848 70.3237 35.7812L77.2713 18.172C77.4727 17.6674 77.7063 17.0583 77.9842 16.3506C78.2159 15.7311 78.5143 15.1386 78.8743 14.5835C79.1922 14.1119 79.6172 13.722 80.1148 13.4456C80.7101 13.1597 81.3622 13.0113 82.0229 13.0113C82.6835 13.0113 83.3356 13.1597 83.9309 13.4456C84.4287 13.7148 84.8574 14.0953 85.1835 14.5573C85.5027 15.0178 85.7727 15.5103 85.989 16.0269C86.2052 16.551 86.4797 17.2513 86.8127 18.1278L93.9093 35.6183C94.4651 36.9519 94.743 37.9202 94.743 38.5233C94.7358 38.8497 94.6622 39.1712 94.5269 39.4684C94.3915 39.7656 94.1972 40.0323 93.9556 40.2523C93.7097 40.506 93.4143 40.7066 93.0877 40.8418C92.7611 40.977 92.4101 41.0439 92.0566 41.0384C91.6727 41.0509 91.2912 40.9731 90.943 40.8112C90.6398 40.6615 90.3736 40.4466 90.1636 40.1819C89.8901 39.8036 89.6629 39.3939 89.487 38.9616C89.248 38.4148 89.0413 37.9316 88.8667 37.5121ZM77.9721 29.9832H86.0877L81.9937 18.7932L77.9721 29.9832Z" fill="#5C5C5C"/>
<path d="M100.986 18.164C100.322 18.1805 99.6759 17.9497 99.1733 17.5166C98.6739 17.0851 98.4242 16.4746 98.4242 15.6852C98.415 15.3524 98.4791 15.0216 98.6121 14.7162C98.745 14.4109 98.9435 14.1384 99.1935 13.918C99.6782 13.4661 100.319 13.2177 100.982 13.2244C101.619 13.219 102.236 13.4424 102.722 13.8537C103.232 14.2678 103.487 14.877 103.487 15.6811C103.487 16.4572 103.239 17.0663 102.744 17.5026C102.263 17.9377 101.635 18.1742 100.986 18.164ZM103.487 23.391V37.9846C103.487 38.9965 103.246 39.7611 102.764 40.2784C102.532 40.5315 102.248 40.7317 101.931 40.8656C101.615 40.9995 101.273 41.0639 100.929 41.0545C100.587 41.066 100.246 41.0007 99.9327 40.8632C99.619 40.7258 99.3402 40.5197 99.1169 40.2603C98.6538 39.7242 98.4222 38.9656 98.4222 37.9846V23.5217C98.4222 22.5232 98.6538 21.7713 99.1169 21.2661C99.3454 21.0153 99.626 20.8174 99.939 20.6861C100.252 20.5549 100.59 20.4934 100.929 20.5061C101.272 20.4958 101.612 20.5582 101.928 20.6892C102.245 20.8202 102.53 21.0169 102.764 21.2661C103.246 21.774 103.487 22.479 103.487 23.381V23.391Z" fill="#5C5C5C"/>
<path d="M108.711 37.9745V16.0832C108.711 15.0713 108.936 14.3067 109.387 13.7893C109.614 13.5322 109.896 13.329 110.211 13.1947C110.527 13.0604 110.869 12.9985 111.212 13.0133C111.558 12.9996 111.903 13.0611 112.223 13.1937C112.543 13.3263 112.83 13.5268 113.064 13.7813C113.533 14.2853 113.771 15.0526 113.779 16.0832V37.9745C113.779 38.9971 113.542 39.7644 113.067 40.2764C112.832 40.5292 112.546 40.7287 112.228 40.8612C111.91 40.9937 111.567 41.0562 111.222 41.0444C110.879 41.056 110.539 40.9906 110.225 40.8531C109.911 40.7157 109.633 40.5097 109.409 40.2503C108.944 39.7195 108.711 38.9609 108.711 37.9745Z" fill="#5C5C5C"/>
<path d="M131.779 38.1976C130.696 39.0642 129.503 39.7829 128.23 40.3347C127.009 40.8241 125.702 41.0661 124.386 41.0464C123.199 41.0729 122.024 40.8092 120.963 40.2784C120.028 39.8087 119.244 39.0881 118.697 38.1976C118.172 37.3403 117.896 36.3538 117.902 35.3489C117.871 34.0463 118.342 32.7815 119.217 31.8146C120.093 30.8416 121.298 30.1882 122.829 29.8545C123.149 29.7794 123.946 29.6126 125.22 29.3539C126.494 29.0952 127.584 28.858 128.49 28.6422C129.398 28.4278 130.382 28.1657 131.444 27.8561C131.384 26.5252 131.115 25.5482 130.639 24.925C130.162 24.3017 129.178 23.9901 127.685 23.9901C126.4 23.9901 125.433 24.169 124.785 24.5269C124.104 24.9163 123.531 25.4691 123.117 26.1352C122.814 26.6207 122.486 27.0904 122.135 27.5425C121.933 27.7717 121.53 27.8843 120.902 27.8843C120.36 27.8943 119.834 27.6998 119.43 27.3395C119.229 27.1675 119.069 26.9527 118.961 26.711C118.854 26.4692 118.802 26.2066 118.81 25.9422C118.83 24.9987 119.162 24.0882 119.754 23.3528C120.385 22.5138 121.367 21.8236 122.7 21.2821C124.034 20.7406 125.695 20.4692 127.685 20.4679C129.908 20.4679 131.653 20.7299 132.92 21.254C134.188 21.778 135.087 22.6076 135.617 23.7428C136.142 24.8767 136.404 26.3812 136.404 28.2562C136.404 29.4383 136.404 30.4435 136.404 31.2718C136.404 32.1001 136.395 33.0188 136.376 34.0281C136.385 35.0357 136.544 36.0364 136.847 36.9974C137.164 38.0268 137.322 38.6895 137.321 38.9857C137.321 39.5031 137.077 39.9722 136.59 40.393C136.135 40.8043 135.544 41.0315 134.93 41.0303C134.411 41.0303 133.899 40.787 133.392 40.3005C132.77 39.6679 132.228 38.9617 131.779 38.1976ZM131.444 30.8918C130.387 31.2494 129.307 31.5368 128.212 31.7523C126.797 32.0539 125.819 32.2757 125.276 32.4177C124.702 32.5768 124.17 32.8611 123.719 33.25C123.472 33.4623 123.276 33.7286 123.147 34.0284C123.019 34.3282 122.961 34.6534 122.978 34.979C122.974 35.3477 123.05 35.713 123.2 36.0499C123.35 36.3868 123.571 36.6874 123.848 36.9311C124.428 37.4672 125.188 37.7353 126.128 37.7353C127.091 37.744 128.041 37.5191 128.897 37.0799C129.67 36.7089 130.317 36.1205 130.76 35.3871C131.216 34.6205 131.444 33.3626 131.444 31.6136V30.8918Z" fill="#5C5C5C"/>
<path d="M145.712 41.6737L146.175 40.5458L139.959 24.8969C139.576 23.9962 139.385 23.3428 139.385 22.9367C139.382 22.5114 139.497 22.0936 139.719 21.7305C139.941 21.3594 140.257 21.053 140.635 20.8419C141.002 20.6264 141.418 20.5113 141.844 20.5081C142.573 20.5081 143.122 20.7393 143.493 21.2017C143.933 21.8032 144.265 22.4767 144.474 23.192L148.755 35.6203L152.813 24.0605C153.058 23.3066 153.349 22.5682 153.683 21.8491C153.943 21.3183 154.216 20.9605 154.508 20.7755C154.884 20.5697 155.311 20.4735 155.739 20.4981C156.127 20.5 156.508 20.6055 156.842 20.8037C157.181 20.9997 157.46 21.2848 157.648 21.6279C157.836 21.9604 157.934 22.3358 157.934 22.7176C157.886 22.9521 157.806 23.2872 157.694 23.7228C157.581 24.155 157.447 24.5933 157.291 25.0376L150.696 42.2768C150.257 43.521 149.695 44.7189 149.021 45.8533C148.499 46.7011 147.755 47.3907 146.87 47.8476C145.973 48.31 144.765 48.5412 143.245 48.5412C141.768 48.5412 140.657 48.381 139.91 48.0607C139.164 47.7404 138.793 47.1547 138.799 46.3036C138.783 46.0552 138.823 45.8064 138.914 45.5748C139.005 45.3431 139.146 45.1342 139.326 44.9627C139.679 44.6491 140.2 44.4902 140.893 44.4902C141.166 44.4895 141.437 44.5274 141.699 44.6028C141.972 44.6696 142.251 44.7067 142.532 44.7134C143.004 44.7358 143.473 44.6469 143.904 44.4541C144.278 44.2409 144.588 43.9313 144.802 43.5574C145.152 42.9533 145.457 42.3236 145.712 41.6737Z" fill="#5C5C5C"/>
<path d="M177.395 34.4423C177.395 35.8361 177.056 37.029 176.376 38.0208C175.697 39.0126 174.69 39.7645 173.355 40.2765C172.026 40.7884 170.411 41.0444 168.51 41.0444C166.694 41.0444 165.137 40.767 163.84 40.2121C162.543 39.6572 161.586 38.9637 160.969 38.1314C160.35 37.299 160.041 36.4634 160.042 35.6244C160.04 35.3584 160.092 35.0947 160.196 34.8498C160.3 34.6049 160.453 34.384 160.646 34.201C160.842 34.0034 161.076 33.8479 161.334 33.7442C161.592 33.6404 161.869 33.5906 162.147 33.5979C162.589 33.5687 163.026 33.7081 163.369 33.9879C163.694 34.3063 163.966 34.6749 164.175 35.0796C164.617 35.8949 165.257 36.5863 166.037 37.09C166.758 37.5336 167.743 37.7561 168.992 37.7574C170.004 37.7574 170.835 37.5322 171.485 37.0819C172.134 36.6316 172.459 36.1169 172.457 35.5379C172.457 34.6493 172.122 34.0013 171.45 33.5939C170.779 33.1864 169.671 32.7984 168.126 32.4298C166.674 32.0919 165.251 31.6374 163.873 31.0708C162.866 30.6566 161.969 30.0136 161.255 29.1931C160.594 28.39 160.246 27.3753 160.276 26.3363C160.28 25.3111 160.596 24.3113 161.182 23.4695C161.854 22.5125 162.782 21.7641 163.86 21.3103C165.041 20.7742 166.464 20.5061 168.132 20.5061C169.32 20.4902 170.506 20.6253 171.66 20.9082C172.586 21.1285 173.47 21.4971 174.278 21.9999C174.907 22.3908 175.449 22.9068 175.871 23.5157C176.21 23.9929 176.399 24.5595 176.416 25.1441C176.425 25.4089 176.378 25.6726 176.278 25.9179C176.178 26.1632 176.026 26.3846 175.834 26.5675C175.444 26.9374 174.892 27.1224 174.175 27.1224C173.694 27.137 173.224 26.9794 172.85 26.6781C172.388 26.2794 171.969 25.8333 171.599 25.3472C171.231 24.8668 170.771 24.4643 170.246 24.1631C169.725 23.8695 169.02 23.7228 168.132 23.7228C167.331 23.6928 166.539 23.8953 165.852 24.3058C165.247 24.6945 164.944 25.1783 164.944 25.7573C164.941 26.0125 165 26.2646 165.116 26.4919C165.232 26.7192 165.402 26.9149 165.61 27.0621C166.154 27.4483 166.764 27.7336 167.409 27.9044C168.162 28.1256 169.2 28.3936 170.522 28.7086C171.854 29.0075 173.145 29.4672 174.366 30.0777C175.257 30.5227 176.03 31.1692 176.626 31.9654C177.14 32.6882 177.41 33.5559 177.395 34.4423Z" fill="#5C5C5C"/>
<path d="M194.46 38.1977C193.376 39.0638 192.182 39.7819 190.908 40.3327C189.686 40.8219 188.379 41.0638 187.063 41.0444C185.877 41.0709 184.701 40.8072 183.64 40.2764C182.707 39.8073 181.924 39.0873 181.378 38.1977C180.849 37.3417 180.57 36.3549 180.573 35.3489C180.544 34.0467 181.015 32.7828 181.89 31.8166C182.767 30.8436 183.971 30.1902 185.503 29.8565C185.822 29.7814 186.619 29.6146 187.893 29.3559C189.167 29.0972 190.257 28.86 191.163 28.6442C192.07 28.4298 193.054 28.1677 194.118 27.8581C194.055 26.5273 193.786 25.5502 193.312 24.927C192.838 24.3037 191.853 23.9921 190.356 23.9921C189.071 23.9921 188.105 24.1711 187.458 24.5289C186.776 24.9176 186.202 25.4705 185.789 26.1372C185.486 26.6225 185.158 27.0922 184.808 27.5445C184.607 27.7737 184.204 27.8863 183.576 27.8863C183.034 27.8964 182.508 27.7018 182.103 27.3415C181.902 27.1696 181.742 26.9549 181.634 26.7132C181.526 26.4714 181.474 26.2087 181.481 25.9442C181.502 25.0005 181.835 24.0901 182.428 23.3548C183.056 22.5158 184.037 21.8256 185.372 21.2841C186.706 20.7427 188.368 20.4712 190.356 20.4699C192.579 20.4699 194.324 20.7319 195.592 21.256C196.859 21.78 197.758 22.6096 198.288 23.7449C198.812 24.8787 199.074 26.3832 199.076 28.2582C199.076 29.4403 199.076 30.4455 199.076 31.2738C199.076 32.1021 199.067 33.0209 199.049 34.0301C199.059 35.0377 199.217 36.0384 199.521 36.9994C199.838 38.0288 199.995 38.6915 199.994 38.9877C199.994 39.5051 199.75 39.9742 199.261 40.395C198.808 40.8067 198.216 41.034 197.604 41.0323C197.084 41.0323 196.573 40.7891 196.065 40.3025C195.446 39.6689 194.907 38.962 194.46 38.1977ZM194.13 30.8898C193.073 31.2474 191.993 31.5348 190.898 31.7503C189.483 32.0518 188.503 32.2737 187.96 32.4157C187.385 32.5748 186.854 32.8591 186.403 33.248C186.155 33.4606 185.96 33.727 185.831 34.0267C185.703 34.3264 185.645 34.6514 185.662 34.977C185.657 35.3459 185.733 35.7114 185.884 36.0483C186.034 36.3853 186.256 36.6858 186.534 36.9291C187.114 37.4652 187.874 37.7332 188.813 37.7332C189.776 37.7417 190.726 37.5168 191.582 37.0779C192.355 36.7063 193.002 36.1181 193.445 35.3851C193.902 34.6185 194.13 33.3606 194.13 31.6116V30.8898Z" fill="#5C5C5C"/>
<path d="M43.0811 0H12.3969C5.55029 0 0 5.54095 0 12.376V43.0086C0 49.8437 5.55029 55.3846 12.3969 55.3846H43.0811C49.9277 55.3846 55.478 49.8437 55.478 43.0086V12.376C55.478 5.54095 49.9277 0 43.0811 0Z" fill="#0673F7"/>
<path d="M40.294 17.7177V18.6003H41.8185C43.3449 18.6003 44.5894 17.0945 44.5894 15.2429V14.6136H42.8495C41.4399 14.6136 40.294 16.0048 40.294 17.7177Z" fill="white"/>
<path d="M40.294 26.6559V40.767C42.6763 40.6684 44.5894 38.3223 44.5894 35.4535V21.8792H44.2833C42.0883 21.8792 40.294 24.0223 40.294 26.6559Z" fill="white"/>
<path d="M24.677 14.6136H13.7885C14.0563 16.8653 15.6734 18.6003 17.6147 18.6003H24.6629C29.0007 18.6003 31.2924 20.7856 31.2924 24.921V25.697H20.7763C13.424 25.697 9.85149 28.1618 9.85149 33.234C9.85149 38.3063 13.424 40.773 20.7763 40.773H24.677C32.0274 40.773 35.6019 37.4016 35.6019 30.4617V24.929C35.6019 17.9831 32.0193 14.6136 24.677 14.6136ZM31.3065 30.4617C31.3065 34.5971 29.0148 36.7824 24.677 36.7824H20.7763C16.3762 36.7824 14.1469 35.5882 14.1469 33.234C14.1469 30.8798 16.3762 29.6856 20.7763 29.6856H31.3065V30.4617Z" fill="white"/>
</g>
<defs>
<clipPath id="clip0_8_94">
<rect width="200" height="55.3846" fill="white"/>
</clipPath>
</defs>
</svg>
